<?xml version="1.0" encoding="utf-8"?>
<!-- Generator: Adobe Illustrator 21.0.0, SVG Export Plug-In . SVG Version: 6.00 Build 0)  -->
<svg version="1.1" id="Layer_1" xmlns="http://www.w3.org/2000/svg" xmlns:xlink="http://www.w3.org/1999/xlink" x="0px" y="0px"
	 viewBox="0 0 228 77" style="enable-background:new 0 0 228 77;" xml:space="preserve">
<style type="text/css">
	.st0{fill:#FFFFFF;}
	.st1{enable-background:new    ;}
</style>
<g>
	<path class="st0" d="M136.6,47.3c-1.2,0-2.2-1-2.2-2.2s1-2.2,2.2-2.2s2.2,1,2.2,2.2S137.9,47.3,136.6,47.3 M136.7,43.1
		c-1.1,0-2,0.9-2,2s0.8,2,1.9,2c1.1,0,2-0.9,2-2C138.6,44,137.8,43.1,136.7,43.1 M137.1,45.3l0.6,0.9h-0.5l-0.6-0.8h-0.5v0.8h-0.4
		v-2.3h1c0.5,0,0.9,0.3,0.9,0.7C137.7,45,137.4,45.2,137.1,45.3 M136.8,44.3h-0.6V45h0.6c0.3,0,0.5-0.1,0.5-0.4
		C137.2,44.4,137.1,44.3,136.8,44.3"/>
	<path class="st0" d="M28,18C17,18,8,27,8,38s9,20,20,20s20-9,20-20S39,18,28,18 M37.2,46.8c-0.4,0.6-1.1,0.8-1.7,0.4
		c-4.7-2.9-10.6-3.5-17.6-1.9c-0.7,0.2-1.3-0.3-1.5-0.9c-0.2-0.7,0.3-1.3,0.9-1.5c7.6-1.7,14.2-1,19.4,2.2
		C37.3,45.5,37.5,46.3,37.2,46.8 M39.6,41.4c-0.5,0.7-1.4,1-2.1,0.5c-5.4-3.3-13.6-4.3-19.9-2.3c-0.8,0.2-1.7-0.2-1.9-1
		c-0.2-0.8,0.2-1.7,1-1.9c7.3-2.2,16.3-1.1,22.5,2.7C39.8,39.7,40.1,40.7,39.6,41.4 M39.8,35.7c-6.4-3.8-17.1-4.2-23.2-2.3
		c-1,0.3-2-0.3-2.3-1.2c-0.3-1,0.3-2,1.2-2.3c7.1-2.1,18.8-1.7,26.2,2.7c0.9,0.5,1.2,1.7,0.7,2.6C41.9,36,40.7,36.3,39.8,35.7"/>
	<path class="st0" d="M62.4,36.5c-3.5-0.8-4.1-1.4-4.1-2.6c0-1.1,1.1-1.9,2.7-1.9s3.1,0.6,4.7,1.8c0,0,0.1,0.1,0.2,0
		c0.1,0,0.1,0,0.1-0.1l1.7-2.4c0.1-0.1,0.1-0.2,0-0.3c-1.9-1.5-4.1-2.3-6.6-2.3c-3.7,0-6.3,2.2-6.3,5.4c0,3.4,2.2,4.6,6.1,5.6
		c3.3,0.8,3.9,1.4,3.9,2.5c0,1.3-1.1,2-2.9,2c-2,0-3.7-0.7-5.5-2.3c0,0-0.1-0.1-0.2-0.1s-0.1,0-0.2,0.1l-1.9,2.2
		c-0.1,0.1-0.1,0.2,0,0.3c2.1,1.9,4.8,2.9,7.6,2.9c4,0,6.6-2.2,6.6-5.6C68.3,39.1,66.6,37.5,62.4,36.5"/>
	<path class="st0" d="M77.4,33.1c-1.7,0-3.2,0.7-4.3,2.1v-1.6c0-0.1-0.1-0.2-0.2-0.2h-3.1c-0.1,0-0.2,0.1-0.2,0.2v17.6
		c0,0.1,0.1,0.2,0.2,0.2h3.1c0.1,0,0.2-0.1,0.2-0.2v-5.5c1.2,1.3,2.6,2,4.3,2c3.2,0,6.5-2.5,6.5-7.3C83.9,35.5,80.7,33.1,77.4,33.1
		 M80.3,40.3c0,2.4-1.5,4.1-3.6,4.1S73,42.6,73,40.3s1.6-4.1,3.7-4.1S80.3,37.9,80.3,40.3"/>
	<path class="st0" d="M92.3,33.1c-4.2,0-7.4,3.2-7.4,7.3s3.2,7.2,7.4,7.2c4.2,0,7.5-3.2,7.5-7.3C99.7,36.2,96.5,33.1,92.3,33.1
		 M92.3,44.5c-2.2,0-3.9-1.8-3.9-4.1c0-2.4,1.6-4.1,3.8-4.1c2.2,0,3.9,1.8,3.9,4.1C96.2,42.7,94.6,44.5,92.3,44.5"/>
	<path class="st0" d="M108.6,33.3h-3.4v-3.5c0-0.1-0.1-0.2-0.2-0.2h-3.1c-0.1,0-0.2,0.1-0.2,0.2v3.5h-1.5c-0.1,0-0.2,0.1-0.2,0.2
		v2.7c0,0.1,0.1,0.2,0.2,0.2h1.5v6.9c0,2.8,1.4,4.2,4.1,4.2c1.1,0,2-0.2,2.9-0.7c0.1,0,0.1-0.1,0.1-0.2v-2.5c0-0.1,0-0.2-0.1-0.2
		s-0.2,0-0.2,0c-0.6,0.3-1.2,0.4-1.8,0.4c-1,0-1.4-0.5-1.4-1.5v-6.4h3.4c0.1,0,0.2-0.1,0.2-0.2v-2.7
		C108.9,33.4,108.8,33.3,108.6,33.3"/>
	<path class="st0" d="M120.5,33.4V33c0-1.3,0.5-1.8,1.6-1.8c0.6,0,1.2,0.1,1.7,0.3c0.1,0,0.1,0,0.2,0c0.1,0,0.1-0.1,0.1-0.2v-2.6
		c0-0.1-0.1-0.2-0.2-0.2c-0.6-0.2-1.4-0.4-2.6-0.4c-2.9,0-4.4,1.6-4.4,4.6v0.7h-1.5c-0.1,0-0.2,0.1-0.2,0.2v2.7
		c0,0.1,0.1,0.2,0.2,0.2h1.5v10.6c0,0.1,0.1,0.2,0.2,0.2h3.1c0.1,0,0.2-0.1,0.2-0.2V36.5h2.9l4.4,10.6c-0.5,1.1-1,1.3-1.7,1.3
		c-0.5,0-1.1-0.2-1.7-0.5c-0.1,0-0.1,0-0.2,0c-0.1,0-0.1,0.1-0.1,0.1l-1,2.3c0,0.1,0,0.2,0.1,0.3c1.1,0.6,2.1,0.8,3.3,0.8
		c2.3,0,3.5-1.1,4.7-3.9l5.4-13.9c0-0.1,0-0.1,0-0.2c0-0.1-0.1-0.1-0.2-0.1h-3.2c-0.1,0-0.2,0.1-0.2,0.2l-3.3,9.4l-3.6-9.4
		c0-0.1-0.1-0.1-0.2-0.1C125.8,33.4,120.5,33.4,120.5,33.4z"/>
	<path class="st0" d="M113.6,33.3h-3.1c-0.1,0-0.2,0.1-0.2,0.2V47c0,0.1,0.1,0.2,0.2,0.2h3.1c0.1,0,0.2-0.1,0.2-0.2V33.6
		C113.8,33.4,113.7,33.3,113.6,33.3"/>
	<path class="st0" d="M112.1,27.2c-1.2,0-2.2,1-2.2,2.2s1,2.2,2.2,2.2s2.2-1,2.2-2.2C114.3,28.2,113.3,27.2,112.1,27.2"/>
</g>
<g>
	<g class="st1">
		<path class="st0" d="M145.6,37.7c0-6.4,4.7-9.9,9.4-9.9c4.3,0,7.3,2.5,8.2,6.1l-1.5,0.5c-0.8-3.1-3.2-5.1-6.7-5.1
			c-3.9,0-7.6,2.9-7.6,8.4s3.7,8.3,7.6,8.3c3.6,0,6-2.2,6.8-5.2l1.5,0.5c-0.9,3.6-4,6.2-8.3,6.2C150.2,47.6,145.6,44.1,145.6,37.7z"
			/>
		<path class="st0" d="M165.6,40.9c0-4.1,2.8-6.8,6.4-6.8c3.6,0,6.4,2.7,6.4,6.8c0,4-2.8,6.8-6.4,6.8S165.6,44.9,165.6,40.9z
			 M172,46.2c2.5,0,4.8-2,4.8-5.3c0-3.4-2.2-5.3-4.8-5.3s-4.8,1.9-4.8,5.3C167.3,44.2,169.5,46.2,172,46.2z"/>
		<path class="st0" d="M191.4,44.7c-0.6,1.3-2,2.9-4.5,2.9c-3.6,0-5.9-3-5.9-6.8s2.4-6.8,5.9-6.8c2.8,0,4,1.7,4.5,2.8v-9h1.6v17
			c0,1.4,0.1,2.3,0.1,2.5h-1.6c-0.1-0.3-0.1-1.1-0.1-2V44.7z M187,46.2c2.7,0,4.4-2.3,4.4-5.3c0-3.1-1.7-5.3-4.3-5.3
			c-2.7,0-4.5,2.2-4.5,5.3C182.6,43.9,184.3,46.2,187,46.2z"/>
		<path class="st0" d="M208.3,43.6c-0.7,2.2-2.7,4-5.6,4c-3.4,0-6.3-2.5-6.3-6.8c0-4,2.8-6.7,6-6.7c3.8,0,6,2.7,6,6.5
			c0,0.2,0,0.4,0,0.6h-10.3v0.1c0,3,2.1,4.9,4.6,4.9c2.3,0,3.7-1.3,4.2-3.1L208.3,43.6z M206.7,39.8c-0.1-2.4-1.6-4.3-4.3-4.3
			c-2.4,0-4.1,1.9-4.3,4.3H206.7z"/>
		<path class="st0" d="M212.2,43.4c0.2,1.6,1.4,2.8,3.5,2.8c1.6,0,2.9-0.9,2.9-2.3c0-1.2-0.8-1.8-2.2-2.2l-2.1-0.5
			c-1.9-0.4-3.2-1.6-3.2-3.4c0-2.1,2-3.8,4.3-3.8c3,0,4.3,1.8,4.6,3.3l-1.4,0.5c-0.2-1.2-1.1-2.5-3.2-2.5c-1.5,0-2.8,0.9-2.8,2.3
			c0,1.1,0.7,1.8,2,2.1l2.1,0.5c2.1,0.5,3.3,1.7,3.3,3.6c0,1.9-1.6,3.8-4.5,3.8c-3.2,0-4.8-2-5-3.7L212.2,43.4z"/>
	</g>
</g>
</svg>
